<?xml version="1.0" standalone="no"?>
<!DOCTYPE svg PUBLIC "-//W3C//DTD SVG 20010904//EN"
 "http://www.w3.org/TR/2001/REC-SVG-20010904/DTD/svg10.dtd">
<svg version="1.0" xmlns="http://www.w3.org/2000/svg"
 width="1080.000000pt" height="2220.000000pt" viewBox="0 0 1080.000000 2220.000000"
 preserveAspectRatio="xMidYMid meet">

<g transform="translate(0.000000,2220.000000) scale(0.100000,-0.100000)"
fill="#000000" stroke="none">
<path d="M0 11100 l0 -11100 5400 0 5400 0 0 11100 0 11100 -5400 0 -5400 0 0
-11100z m2755 10941 c104 -48 143 -156 94 -258 -20 -41 -41 -54 -54 -33 -4 6
3 31 15 55 53 110 -40 225 -162 201 -115 -23 -147 -180 -53 -254 33 -26 93
-36 130 -22 25 9 31 8 42 -6 11 -16 10 -20 -9 -31 -35 -19 -113 -16 -158 7
-69 35 -120 131 -104 197 31 129 149 195 259 144z m6969 -35 c75 -44 76 -40
-35 -174 -55 -67 -102 -122 -104 -122 -2 0 -49 55 -104 122 -111 135 -110 130
-35 174 81 48 197 47 278 0z m796 25 c0 -14 8 -21 28 -23 l27 -3 3 -149 c2
-113 -1 -151 -10 -158 -7 -4 -49 -8 -93 -8 -44 0 -86 4 -93 8 -9 7 -12 45 -10
158 l3 149 26 3 c17 2 29 11 32 23 8 28 87 28 87 0z m-8862 -3 c8 -8 12 -51
12 -130 0 -106 -2 -118 -19 -128 -28 -15 -294 -13 -309 2 -17 17 -17 254 1
261 27 12 303 7 315 -5z m8510 -155 l-3 -168 -167 -3 c-93 -1 -168 1 -168 5 0
10 323 333 333 333 4 0 6 -75 5 -167z m-8000 7 c45 -79 80 -150 78 -157 -7
-17 -341 -19 -351 -3 -4 6 28 73 71 148 88 157 93 164 108 159 6 -2 48 -68 94
-147z m-1778 100 c12 -12 20 -33 20 -54 0 -36 -18 -65 -84 -133 l-40 -43 72 0
c57 0 72 -3 72 -15 0 -12 -17 -15 -95 -15 -61 0 -95 4 -95 11 0 6 29 44 65 85
47 54 65 82 65 103 0 56 -64 70 -88 19 -7 -16 -20 -28 -28 -28 -22 0 -16 38
11 65 31 32 96 34 125 5z m338 3 c-2 -14 -15 -19 -61 -21 -56 -3 -57 -4 -57
-32 0 -28 3 -30 38 -30 64 0 100 -56 81 -125 -11 -40 -37 -57 -86 -57 -36 0
-83 33 -83 59 0 21 37 15 43 -7 8 -30 62 -27 82 4 34 52 -15 113 -72 87 -38
-18 -46 -3 -38 73 l7 66 75 0 c66 0 74 -2 71 -17z m189 -5 c28 -26 30 -71 4
-97 -16 -16 -17 -20 -5 -25 26 -10 35 -54 20 -91 -11 -25 -23 -36 -48 -43 -59
-16 -118 14 -118 60 0 27 29 22 40 -7 8 -20 16 -25 44 -25 71 0 72 81 2 94
-44 8 -50 36 -8 36 33 0 52 16 52 45 0 48 -59 62 -86 20 -9 -14 -23 -25 -30
-25 -22 0 -16 29 11 55 32 33 89 34 122 3z m373 -128 l0 -120 155 0 c132 0
155 -2 155 -15 0 -13 -23 -15 -167 -13 l-168 3 -3 133 c-2 113 0 132 13 132
13 0 15 -19 15 -120z m1441 104 c42 -21 64 -75 49 -120 -6 -19 -14 -34 -18
-34 -4 0 -32 26 -64 57 l-58 57 -23 -22 c-30 -28 -40 -28 -31 1 20 65 84 93
145 61z m-2221 -44 c0 -13 -7 -20 -20 -20 -13 0 -20 7 -20 20 0 13 7 20 20 20
13 0 20 -7 20 -20z m2174 -99 c30 -31 34 -39 22 -44 -25 -10 -73 3 -92 24 -16
18 -16 20 1 39 10 11 21 20 25 20 3 0 23 -17 44 -39z m-2174 -71 c0 -13 -7
-20 -20 -20 -13 0 -20 7 -20 20 0 13 7 20 20 20 13 0 20 -7 20 -20z m280 -776
c12 -13 3 -25 -58 -87 -40 -40 -72 -76 -72 -80 0 -4 74 -7 165 -7 158 0 165
-1 165 -20 0 -19 -7 -20 -165 -20 -91 0 -165 -3 -165 -7 0 -4 32 -40 72 -80
69 -69 72 -74 55 -90 -16 -17 -23 -12 -125 90 l-107 107 105 105 c58 58 108
105 111 105 4 0 12 -7 19 -16z m1850 -73 l0 -70 36 15 c45 19 87 10 114 -23
17 -22 20 -41 20 -144 l0 -119 -30 0 -30 0 0 101 c0 112 -9 139 -46 139 -59 0
-64 -11 -64 -130 l0 -110 -35 0 -35 0 0 205 0 205 35 0 35 0 0 -69z m-400 37
c63 -32 90 -88 90 -183 0 -126 -58 -199 -160 -199 -102 0 -160 73 -160 199 0
95 27 151 90 183 24 12 56 22 70 22 14 0 46 -10 70 -22z m3257 -4 c26 -16 63
-71 63 -91 0 -8 -14 -13 -35 -13 -20 0 -35 5 -35 12 0 6 -10 22 -22 35 -29 31
-78 30 -115 -1 -25 -21 -28 -31 -31 -100 -3 -47 1 -88 8 -107 21 -49 93 -74
141 -49 14 8 19 21 19 50 0 40 0 40 -40 40 -36 0 -40 3 -40 25 0 24 2 25 75
25 l75 0 0 -73 c0 -88 -16 -109 -94 -127 -87 -19 -165 14 -197 84 -23 50 -26
171 -5 219 17 40 54 75 92 87 38 12 112 4 141 -16z m493 4 c63 -32 90 -88 90
-183 0 -126 -58 -199 -160 -199 -102 0 -160 73 -160 199 0 95 27 151 90 183
24 12 56 22 70 22 14 0 46 -10 70 -22z m1491 6 c17 -21 0 -49 -31 -49 -31 0
-48 28 -31 49 8 9 21 16 31 16 10 0 23 -7 31 -16z m-3711 -19 c0 -25 -1 -25
-90 -25 l-90 0 0 -60 0 -60 81 0 80 0 -3 -27 c-3 -28 -4 -28 -80 -31 l-78 -3
0 -79 0 -80 -35 0 -35 0 0 195 0 195 125 0 125 0 0 -25z m300 0 c0 -25 -1 -25
-90 -25 l-90 0 0 -60 0 -60 81 0 80 0 -3 -27 c-3 -28 -4 -28 -80 -31 l-78 -3
0 -79 0 -80 -35 0 -35 0 0 195 0 195 125 0 125 0 0 -25z m170 -57 c66 -177 75
-198 81 -198 4 0 17 28 29 63 13 34 36 97 52 140 l30 77 44 0 44 0 0 -195 0
-195 -37 0 -36 0 6 140 c4 77 5 140 3 140 -2 0 -27 -63 -56 -140 -50 -130 -55
-140 -79 -140 -24 0 -30 9 -75 129 -26 70 -52 134 -56 141 -4 6 -5 -52 -2
-129 l5 -141 -37 0 -36 0 0 195 0 195 44 0 44 0 32 -82z m584 67 c41 -20 66
-63 66 -114 0 -77 -64 -119 -182 -121 l-38 0 0 -70 0 -70 -35 0 -35 0 0 195 0
195 96 0 c65 0 106 -5 128 -15z m376 -10 c0 -25 -1 -25 -90 -25 l-90 0 0 -55
0 -55 80 0 80 0 0 -30 0 -30 -80 0 -80 0 0 -55 0 -54 93 -3 92 -3 3 -27 3 -28
-130 0 -131 0 0 195 0 195 125 0 125 0 0 -25z m-2720 -40 c0 -31 3 -35 25 -35
20 0 25 -5 25 -25 0 -20 -5 -25 -25 -25 l-26 0 3 -92 c3 -88 4 -93 26 -96 15
-2 22 -10 22 -27 0 -44 -85 -41 -109 4 -6 11 -11 63 -11 115 0 96 0 96 -25 96
-20 0 -25 5 -25 25 0 20 5 25 25 25 22 0 25 4 25 35 0 33 2 35 35 35 33 0 35
-2 35 -35z m4840 0 c0 -31 3 -35 25 -35 20 0 25 -5 25 -25 0 -20 -5 -25 -25
-25 l-26 0 3 -92 c3 -88 4 -93 26 -96 15 -2 22 -10 22 -27 0 -44 -85 -41 -109
4 -6 11 -11 63 -11 115 0 96 0 96 -25 96 -20 0 -25 5 -25 25 0 20 5 25 25 25
22 0 25 4 25 35 0 33 2 35 35 35 33 0 35 -2 35 -35z m-4248 -46 c29 -16 48
-53 55 -108 l6 -51 -97 0 c-53 0 -96 -4 -96 -9 0 -4 9 -20 21 -35 24 -31 72
-35 108 -10 21 15 24 15 39 1 14 -15 14 -18 -3 -37 -41 -45 -142 -45 -191 1
-50 47 -56 158 -12 214 40 51 112 65 170 34z m266 -17 c3 -29 1 -32 -23 -32
-59 0 -65 -11 -65 -125 l0 -105 -35 0 -35 0 0 145 0 145 35 0 c19 0 35 -4 35
-9 0 -6 12 -3 28 5 39 21 57 14 60 -24z m3019 6 c70 -66 49 -230 -33 -264 -33
-14 -41 -14 -76 -1 l-38 15 0 -64 0 -64 -35 0 -35 0 0 200 0 200 29 0 c17 0
32 -4 36 -9 3 -6 19 -4 38 5 40 17 84 11 114 -18z m285 11 c29 -16 48 -53 55
-108 l6 -51 -97 0 c-53 0 -96 -4 -96 -9 0 -4 9 -20 21 -35 24 -31 72 -35 108
-10 21 15 24 15 39 1 14 -15 14 -18 -3 -37 -41 -45 -142 -45 -191 1 -50 47
-56 158 -12 214 40 51 112 65 170 34z m266 -17 c3 -29 1 -32 -23 -32 -59 0
-65 -11 -65 -125 l0 -105 -35 0 -35 0 0 145 0 145 35 0 c19 0 35 -4 35 -9 0
-6 12 -3 28 5 39 21 57 14 60 -24z m185 27 c55 -15 64 -37 69 -171 l4 -118
-33 0 c-18 0 -33 4 -33 9 0 6 -15 4 -34 -4 -68 -29 -140 12 -140 80 0 58 55
95 142 95 38 0 42 20 11 51 -22 22 -55 19 -75 -7 -12 -15 -74 -20 -74 -5 0 20
44 61 73 70 43 12 46 12 90 0z m662 -15 c52 -34 72 -141 38 -211 -21 -46 -86
-77 -139 -67 -76 14 -121 84 -111 171 12 108 124 165 212 107z m323 -10 c20
-23 22 -35 22 -145 l0 -119 -30 0 -30 0 0 101 c0 112 -9 139 -46 139 -59 0
-64 -11 -64 -130 l0 -110 -35 0 -35 0 0 145 0 145 35 0 c19 0 35 -4 35 -10 0
-5 15 -3 33 5 42 19 86 11 115 -21z m256 22 c34 -14 66 -50 66 -73 0 -8 -13
-13 -35 -13 -25 0 -35 4 -35 15 0 9 -12 20 -26 25 -34 13 -66 -4 -62 -33 2
-16 16 -25 63 -39 66 -19 95 -46 95 -87 0 -84 -156 -117 -217 -46 -33 38 -30
55 11 55 24 0 35 -5 39 -19 7 -26 54 -36 83 -16 36 23 16 50 -51 70 -66 19
-95 44 -95 84 0 67 89 109 164 77z m-854 -141 l0 -145 -30 0 -30 0 0 145 0
145 30 0 30 0 0 -145z m3002 -893 l33 -32 0 -430 0 -430 -33 -32 -32 -33
-5050 0 -5050 0 -32 33 -33 32 0 429 0 429 25 27 c14 15 34 31 45 35 11 5
2287 8 5057 7 l5038 -2 32 -33z m0 -1320 l33 -32 0 -430 0 -430 -33 -32 -32
-33 -5050 0 -5050 0 -32 33 -33 32 0 429 0 429 25 27 c14 15 34 31 45 35 11 5
2287 8 5057 7 l5038 -2 32 -33z m0 -1320 l33 -32 0 -430 0 -430 -33 -32 -32
-33 -5050 0 -5050 0 -32 33 -33 32 0 429 0 429 25 27 c14 15 34 31 45 35 11 5
2287 8 5057 7 l5038 -2 32 -33z m0 -1320 l33 -32 0 -430 0 -430 -33 -32 -32
-33 -5050 0 -5050 0 -32 33 -33 32 0 429 0 429 25 27 c14 15 34 31 45 35 11 5
2287 8 5057 7 l5038 -2 32 -33z m0 -1320 l33 -32 0 -430 0 -430 -33 -32 -32
-33 -5050 0 -5050 0 -32 33 -33 32 0 429 0 429 25 27 c14 15 34 31 45 35 11 5
2287 8 5057 7 l5038 -2 32 -33z m-8038 -13668 c8 -20 8 -378 0 -398 -3 -9 -13
-16 -21 -16 -8 0 -91 45 -184 101 -120 71 -169 105 -167 116 3 18 323 212 349
212 9 1 20 -6 23 -15z m6250 -10 c24 -23 24 -355 0 -378 -23 -24 -355 -24
-378 0 -13 13 -16 45 -16 189 0 144 3 176 16 189 23 24 355 24 378 0z m-3178
-30 c58 -47 76 -87 72 -166 -3 -57 -8 -73 -34 -104 -47 -58 -87 -76 -166 -72
-57 3 -73 8 -104 34 -58 47 -76 87 -72 166 3 57 8 73 34 104 47 58 87 76 166
72 57 -3 73 -8 104 -34z"/>
<path d="M1360 21900 c0 -82 3 -100 15 -100 12 0 15 14 15 70 0 42 4 70 11 70
5 0 27 -11 47 -25 20 -14 41 -25 47 -25 6 0 32 13 58 30 l47 30 0 -75 c0 -60
3 -75 15 -75 12 0 15 18 15 100 0 63 -4 100 -10 100 -6 0 -36 -16 -66 -35
l-55 -36 -57 36 c-32 19 -63 35 -70 35 -9 0 -12 -28 -12 -100z"/>
<path d="M10067 21892 c-53 -54 -57 -61 -57 -105 l0 -47 60 0 60 0 0 105 c0
58 -1 105 -3 105 -1 0 -28 -26 -60 -58z"/>
<path d="M2050 21880 c0 -47 2 -50 25 -50 23 0 25 3 25 50 0 47 -2 50 -25 50
-23 0 -25 -3 -25 -50z"/>
<path d="M2050 21774 c0 -21 4 -25 23 -22 14 2 23 11 25 26 3 18 -1 22 -22 22
-21 0 -26 -5 -26 -26z"/>
<path d="M2127 20879 c-31 -18 -47 -65 -47 -136 0 -86 23 -129 73 -138 70 -13
107 35 107 140 0 96 -31 145 -92 145 -13 0 -31 -5 -41 -11z"/>
<path d="M5877 20879 c-31 -18 -47 -65 -47 -136 0 -86 23 -129 73 -138 70 -13
107 35 107 140 0 96 -31 145 -92 145 -13 0 -31 -5 -41 -11z"/>
<path d="M4670 20820 l0 -70 53 0 c67 0 97 20 97 63 0 18 -4 37 -8 44 -11 18
-58 33 -103 33 l-39 0 0 -70z"/>
<path d="M2962 20778 c-5 -7 -13 -23 -16 -35 -7 -22 -5 -23 53 -23 65 0 73 8
51 51 -12 22 -71 27 -88 7z"/>
<path d="M6228 20779 c-15 -8 -18 -24 -18 -84 0 -65 3 -76 20 -85 33 -17 73
-8 88 20 16 30 11 122 -7 144 -15 18 -57 20 -83 5z"/>
<path d="M6532 20778 c-5 -7 -13 -23 -16 -35 -7 -22 -5 -23 53 -23 65 0 73 8
51 51 -12 22 -71 27 -88 7z"/>
<path d="M7031 20681 c-55 -15 -52 -73 3 -79 36 -5 68 24 64 57 -3 28 -24 35
-67 22z"/>
<path d="M7626 20768 c-24 -34 -21 -123 4 -148 50 -50 113 -8 113 75 0 61 -24
95 -68 95 -24 0 -39 -7 -49 -22z"/>
<path d="M4180 19331 l0 -141 25 0 c24 0 24 2 27 88 l3 87 31 -85 c27 -73 35
-85 54 -85 19 0 28 13 57 90 19 49 35 90 36 91 1 1 0 -40 -1 -92 l-4 -94 31 0
32 0 -3 138 -3 137 -34 0 c-34 0 -34 0 -72 -100 -42 -113 -34 -115 -87 25 -26
70 -30 75 -60 78 l-32 3 0 -140z"/>
<path d="M4550 19330 l0 -140 90 0 c83 0 90 1 90 20 0 18 -7 20 -65 20 l-65 0
0 40 0 40 55 0 c48 0 55 2 55 20 0 18 -7 20 -55 20 l-55 0 0 40 0 40 65 0 c58
0 65 2 65 20 0 19 -7 20 -90 20 l-90 0 0 -140z"/>
<path d="M4800 19330 l0 -140 25 0 c23 0 25 3 25 50 0 46 2 50 24 50 19 0 31
-11 53 -50 23 -42 33 -50 56 -50 l29 0 -31 56 -31 57 25 29 c33 39 32 73 -4
109 -27 27 -35 29 -100 29 l-71 0 0 -140z m124 87 c12 -9 17 -23 14 -42 -3
-27 -7 -30 -45 -33 l-43 -3 0 45 c0 44 1 46 28 46 16 0 36 -6 46 -13z"/>
<path d="M5098 19441 c-29 -26 -32 -34 -36 -97 -3 -77 7 -105 51 -138 35 -26
104 -27 141 -2 23 14 26 23 26 71 l0 55 -56 0 c-47 0 -55 -3 -52 -17 2 -11 14
-19 31 -21 24 -3 28 -7 25 -30 -3 -23 -8 -27 -39 -30 -25 -2 -40 3 -53 17 -40
45 -28 165 19 177 33 8 63 -3 70 -27 4 -12 15 -19 31 -19 33 0 31 25 -5 61
-42 41 -107 41 -153 0z"/>
<path d="M5370 19330 l0 -140 90 0 c83 0 90 1 90 20 0 18 -7 20 -65 20 l-65 0
0 40 0 40 55 0 c48 0 55 2 55 20 0 18 -7 20 -55 20 l-55 0 0 40 0 40 65 0 c58
0 65 2 65 20 0 19 -7 20 -90 20 l-90 0 0 -140z"/>
<path d="M5778 19441 c-29 -26 -32 -34 -36 -97 -3 -77 7 -105 51 -138 35 -26
104 -27 141 -2 23 14 26 23 26 71 l0 55 -56 0 c-47 0 -55 -3 -52 -17 2 -11 14
-19 31 -21 24 -3 28 -7 25 -30 -3 -23 -8 -27 -39 -30 -25 -2 -40 3 -53 17 -40
45 -28 165 19 177 33 8 63 -3 70 -27 4 -12 15 -19 31 -19 33 0 31 25 -5 61
-42 41 -107 41 -153 0z"/>
<path d="M6050 19330 l0 -140 25 0 25 0 0 140 0 140 -25 0 -25 0 0 -140z"/>
<path d="M6190 19330 l0 -140 25 0 c24 0 25 3 25 54 l0 55 53 3 c45 3 52 6 55
26 3 21 0 22 -52 22 l-56 0 0 40 0 40 65 0 c58 0 65 2 65 20 0 19 -7 20 -90
20 l-90 0 0 -140z"/>
<path d="M6445 19445 c-49 -48 -24 -102 60 -134 27 -10 54 -25 59 -34 16 -25
-1 -47 -36 -47 -38 0 -52 8 -61 33 -7 19 -42 23 -53 6 -11 -18 30 -63 71 -77
45 -15 109 -1 125 28 16 29 12 75 -7 93 -10 8 -40 25 -68 37 -57 24 -68 37
-54 63 15 26 71 20 84 -10 6 -14 18 -23 32 -23 31 0 30 34 -2 65 -19 20 -34
25 -75 25 -41 0 -56 -5 -75 -25z"/>
<path d="M3880 18011 l0 -141 25 0 c24 0 24 2 27 88 l3 87 31 -85 c27 -73 35
-85 54 -85 19 0 28 13 57 90 19 49 35 90 36 91 1 1 0 -40 -1 -92 l-4 -94 31 0
32 0 -3 138 -3 137 -34 0 c-34 0 -34 0 -72 -100 -42 -113 -34 -115 -87 25 -26
70 -30 75 -60 78 l-32 3 0 -140z"/>
<path d="M4250 18010 l0 -140 90 0 c83 0 90 1 90 20 0 18 -7 20 -65 20 l-65 0
0 40 0 40 55 0 c48 0 55 2 55 20 0 18 -7 20 -55 20 l-55 0 0 40 0 40 65 0 c58
0 65 2 65 20 0 19 -7 20 -90 20 l-90 0 0 -140z"/>
<path d="M4500 18010 l0 -140 25 0 c23 0 25 3 25 50 0 46 2 50 24 50 19 0 31
-11 53 -50 23 -42 33 -50 56 -50 l29 0 -31 56 -31 57 25 29 c33 39 32 73 -4
109 -27 27 -35 29 -100 29 l-71 0 0 -140z m124 87 c12 -9 17 -23 14 -42 -3
-27 -7 -30 -45 -33 l-43 -3 0 45 c0 44 1 46 28 46 16 0 36 -6 46 -13z"/>
<path d="M4798 18121 c-29 -26 -32 -34 -36 -97 -3 -77 7 -105 51 -138 35 -26
104 -27 141 -2 23 14 26 23 26 71 l0 55 -56 0 c-47 0 -55 -3 -52 -17 2 -11 14
-19 31 -21 24 -3 28 -7 25 -30 -3 -23 -8 -27 -39 -30 -25 -2 -40 3 -53 17 -40
45 -28 165 19 177 33 8 63 -3 70 -27 4 -12 15 -19 31 -19 33 0 31 25 -5 61
-42 41 -107 41 -153 0z"/>
<path d="M5070 18010 l0 -140 90 0 c83 0 90 1 90 20 0 18 -7 20 -65 20 l-65 0
0 40 0 40 55 0 c48 0 55 2 55 20 0 18 -7 20 -55 20 l-55 0 0 40 0 40 65 0 c58
0 65 2 65 20 0 19 -7 20 -90 20 l-90 0 0 -140z"/>
<path d="M5499 18078 c-15 -40 -38 -103 -52 -140 l-26 -68 28 0 c23 0 31 6 40
30 9 28 13 30 61 30 48 0 52 -2 61 -30 9 -24 17 -30 40 -30 l28 0 -25 66 c-79
209 -78 209 -104 212 -23 3 -28 -4 -51 -70z m69 -47 c16 -52 16 -51 -18 -51
-16 0 -30 3 -30 6 0 17 24 84 30 84 4 0 12 -17 18 -39z"/>
<path d="M5730 18041 c0 -102 2 -111 25 -139 31 -37 81 -48 129 -28 19 8 39
23 45 34 6 12 11 70 11 131 l0 111 -25 0 -25 0 0 -108 c0 -116 -6 -132 -49
-132 -51 0 -56 11 -59 130 -4 109 -4 110 -28 110 -24 0 -24 0 -24 -109z"/>
<path d="M6020 18010 l0 -140 64 0 c50 0 69 5 91 22 75 59 71 190 -7 238 -23
14 -50 20 -90 20 l-58 0 0 -140z m132 73 c13 -12 18 -31 18 -72 0 -31 -4 -61
-8 -67 -11 -16 -48 -34 -71 -34 -20 0 -21 6 -21 101 l0 102 32 -7 c17 -3 40
-14 50 -23z"/>
<path d="M6300 18010 l0 -140 25 0 25 0 0 140 0 140 -25 0 -25 0 0 -140z"/>
<path d="M6468 18121 c-32 -29 -33 -32 -33 -110 0 -77 1 -82 32 -112 26 -27
39 -32 78 -32 38 0 52 5 77 31 27 26 32 40 36 92 8 103 -33 160 -114 160 -34
0 -51 -6 -76 -29z m117 -31 c40 -45 27 -164 -21 -176 -54 -14 -84 23 -84 100
0 78 62 123 105 76z"/>
<path d="M6755 18125 c-49 -48 -24 -102 60 -134 27 -10 54 -25 59 -34 16 -25
-1 -47 -36 -47 -38 0 -52 8 -61 33 -7 19 -42 23 -53 6 -11 -18 30 -63 71 -77
45 -15 109 -1 125 28 16 29 12 75 -7 93 -10 8 -40 25 -68 37 -57 24 -68 37
-54 63 15 26 71 20 84 -10 6 -14 18 -23 32 -23 31 0 30 34 -2 65 -19 20 -34
25 -75 25 -41 0 -56 -5 -75 -25z"/>
<path d="M2968 16801 c-29 -26 -33 -35 -36 -98 -5 -86 13 -128 64 -149 48 -20
98 -9 129 28 31 37 32 58 2 58 -16 0 -28 -9 -35 -25 -9 -20 -19 -25 -46 -25
-18 0 -39 7 -46 15 -19 23 -25 110 -10 145 21 51 82 52 105 2 6 -13 19 -22 32
-22 33 0 30 35 -6 71 -42 41 -107 41 -153 0z"/>
<path d="M3220 16690 l0 -140 25 0 c24 0 25 3 25 60 l0 60 60 0 60 0 0 -60 c0
-57 1 -60 25 -60 l25 0 0 140 0 140 -25 0 c-24 0 -25 -3 -25 -60 l0 -60 -60 0
-60 0 0 60 c0 57 -1 60 -25 60 l-25 0 0 -140z"/>
<path d="M3579 16758 c-15 -40 -38 -103 -52 -140 l-26 -68 28 0 c23 0 31 6 40
30 9 28 13 30 61 30 48 0 52 -2 61 -30 9 -24 17 -30 40 -30 l28 0 -25 66 c-79
209 -78 209 -104 212 -23 3 -28 -4 -51 -70z m69 -47 c16 -52 16 -51 -18 -51
-16 0 -30 3 -30 6 0 17 24 84 30 84 4 0 12 -17 18 -39z"/>
<path d="M3820 16690 l0 -140 25 0 c24 0 24 2 27 90 l3 91 55 -90 c48 -78 59
-90 83 -91 l27 0 0 140 0 140 -25 0 c-24 0 -24 -1 -27 -95 l-3 -95 -58 95
c-48 78 -63 95 -83 95 l-24 0 0 -140z"/>
<path d="M4158 16801 c-29 -26 -32 -34 -36 -97 -3 -77 7 -105 51 -138 35 -26
104 -27 141 -2 23 14 26 23 26 71 l0 55 -56 0 c-47 0 -55 -3 -52 -17 2 -11 14
-19 31 -21 24 -3 28 -7 25 -30 -3 -23 -8 -27 -39 -30 -25 -2 -40 3 -53 17 -40
45 -28 165 19 177 33 8 63 -3 70 -27 4 -12 15 -19 31 -19 33 0 31 25 -5 61
-42 41 -107 41 -153 0z"/>
<path d="M4430 16690 l0 -140 90 0 c83 0 90 1 90 20 0 18 -7 20 -65 20 l-65 0
0 40 0 40 55 0 c48 0 55 2 55 20 0 18 -7 20 -55 20 l-55 0 0 40 0 40 65 0 c58
0 65 2 65 20 0 19 -7 20 -90 20 l-90 0 0 -140z"/>
<path d="M4859 16758 c-15 -40 -38 -103 -52 -140 l-26 -68 28 0 c23 0 31 6 40
30 9 28 13 30 61 30 48 0 52 -2 61 -30 9 -24 17 -30 40 -30 l28 0 -25 66 c-79
209 -78 209 -104 212 -23 3 -28 -4 -51 -70z m69 -47 c16 -52 16 -51 -18 -51
-16 0 -30 3 -30 6 0 17 24 84 30 84 4 0 12 -17 18 -39z"/>
<path d="M5090 16721 c0 -102 2 -111 25 -139 31 -37 81 -48 129 -28 19 8 39
23 45 34 6 12 11 70 11 131 l0 111 -25 0 -25 0 0 -108 c0 -116 -6 -132 -49
-132 -51 0 -56 11 -59 130 -4 109 -4 110 -28 110 -24 0 -24 0 -24 -109z"/>
<path d="M5380 16690 l0 -140 64 0 c50 0 69 5 91 22 75 59 71 190 -7 238 -23
14 -50 20 -90 20 l-58 0 0 -140z m132 73 c13 -12 18 -31 18 -72 0 -31 -4 -61
-8 -67 -11 -16 -48 -34 -71 -34 -20 0 -21 6 -21 101 l0 102 32 -7 c17 -3 40
-14 50 -23z"/>
<path d="M5660 16690 l0 -140 25 0 25 0 0 140 0 140 -25 0 -25 0 0 -140z"/>
<path d="M5828 16801 c-32 -29 -33 -32 -33 -110 0 -77 1 -82 32 -112 26 -27
39 -32 78 -32 38 0 52 5 77 31 27 26 32 40 36 92 8 103 -33 160 -114 160 -34
0 -51 -6 -76 -29z m117 -31 c40 -45 27 -164 -21 -176 -54 -14 -84 23 -84 100
0 78 62 123 105 76z"/>
<path d="M6249 16693 c47 -133 50 -138 77 -138 26 0 30 6 75 130 27 72 48 133
49 138 0 4 -13 7 -28 7 -27 0 -30 -5 -62 -106 l-35 -106 -33 106 c-32 103 -33
106 -62 106 l-29 0 48 -137z"/>
<path d="M6538 16801 c-32 -29 -33 -32 -33 -110 0 -77 1 -82 32 -112 26 -27
39 -32 78 -32 38 0 52 5 77 31 27 26 32 40 36 92 8 103 -33 160 -114 160 -34
0 -51 -6 -76 -29z m117 -31 c40 -45 27 -164 -21 -176 -54 -14 -84 23 -84 100
0 78 62 123 105 76z"/>
<path d="M6810 16690 l0 -140 91 0 c81 0 90 2 87 18 -3 14 -16 18 -66 20 l-62
3 0 119 0 120 -25 0 -25 0 0 -140z"/>
<path d="M7040 16721 c0 -102 2 -111 25 -139 31 -37 81 -48 129 -28 19 8 39
23 45 34 6 12 11 70 11 131 l0 111 -25 0 -25 0 0 -108 c0 -116 -6 -132 -49
-132 -51 0 -56 11 -59 130 -4 109 -4 110 -28 110 -24 0 -24 0 -24 -109z"/>
<path d="M7330 16691 l0 -141 25 0 c24 0 24 2 27 88 l3 87 31 -85 c27 -73 35
-85 54 -85 19 0 28 13 57 90 19 49 35 90 36 91 1 1 0 -40 -1 -92 l-4 -94 31 0
32 0 -3 138 -3 137 -34 0 c-34 0 -34 0 -72 -100 -42 -113 -34 -115 -87 25 -26
70 -30 75 -60 78 l-32 3 0 -140z"/>
<path d="M7700 16690 l0 -140 90 0 c83 0 90 1 90 20 0 18 -7 20 -65 20 l-65 0
0 40 0 40 55 0 c48 0 55 2 55 20 0 18 -7 20 -55 20 l-55 0 0 40 0 40 65 0 c58
0 65 2 65 20 0 19 -7 20 -90 20 l-90 0 0 -140z"/>
<path d="M2500 15370 l0 -140 25 0 c24 0 25 3 25 54 l0 55 53 3 c45 3 52 6 55
26 3 21 0 22 -52 22 l-56 0 0 40 0 40 65 0 c58 0 65 2 65 20 0 19 -7 20 -90
20 l-90 0 0 -140z"/>
<path d="M2749 15438 c-15 -40 -38 -103 -52 -140 l-26 -68 28 0 c23 0 31 6 40
30 9 28 13 30 61 30 48 0 52 -2 61 -30 9 -24 17 -30 40 -30 l28 0 -25 66 c-79
209 -78 209 -104 212 -23 3 -28 -4 -51 -70z m69 -47 c16 -52 16 -51 -18 -51
-16 0 -30 3 -30 6 0 17 24 84 30 84 4 0 12 -17 18 -39z"/>
<path d="M3005 15485 c-49 -48 -24 -102 60 -134 27 -10 54 -25 59 -34 16 -25
-1 -47 -36 -47 -38 0 -52 8 -61 33 -7 19 -42 23 -53 6 -11 -18 30 -63 71 -77
45 -15 109 -1 125 28 16 29 12 75 -7 93 -10 8 -40 25 -68 37 -57 24 -68 37
-54 63 15 26 71 20 84 -10 6 -14 18 -23 32 -23 31 0 30 34 -2 65 -19 20 -34
25 -75 25 -41 0 -56 -5 -75 -25z"/>
<path d="M3240 15490 c0 -17 7 -20 40 -20 l40 0 0 -120 0 -120 25 0 24 0 3
118 3 117 43 3 c34 3 42 7 42 23 0 18 -8 19 -110 19 -103 0 -110 -1 -110 -20z"/>
<path d="M3599 15483 c-27 -71 -99 -271 -99 -277 0 -3 9 -6 19 -6 13 0 24 13
34 43 8 23 33 93 56 155 38 105 39 112 20 112 -12 0 -23 -10 -30 -27z"/>
<path d="M3725 15485 c-49 -48 -24 -102 60 -134 27 -10 54 -25 59 -34 16 -25
-1 -47 -36 -47 -38 0 -52 8 -61 33 -7 19 -42 23 -53 6 -11 -18 30 -63 71 -77
45 -15 109 -1 125 28 16 29 12 75 -7 93 -10 8 -40 25 -68 37 -57 24 -68 37
-54 63 15 26 71 20 84 -10 6 -14 18 -23 32 -23 31 0 30 34 -2 65 -19 20 -34
25 -75 25 -41 0 -56 -5 -75 -25z"/>
<path d="M3980 15370 l0 -140 91 0 c81 0 90 2 87 18 -3 14 -16 18 -66 20 l-62
3 0 119 0 120 -25 0 -25 0 0 -140z"/>
<path d="M4238 15481 c-32 -29 -33 -32 -33 -110 0 -77 1 -82 32 -112 26 -27
39 -32 78 -32 38 0 52 5 77 31 27 26 32 40 36 92 8 103 -33 160 -114 160 -34
0 -51 -6 -76 -29z m117 -31 c40 -45 27 -164 -21 -176 -54 -14 -84 23 -84 100
0 78 62 123 105 76z"/>
<path d="M4490 15500 c0 -9 10 -54 55 -248 5 -18 11 -23 32 -20 24 3 28 10 52
98 l25 95 24 -98 c23 -93 25 -97 51 -97 27 0 28 3 55 128 16 70 31 133 34 140
3 10 -3 13 -24 10 -28 -3 -30 -7 -46 -83 -9 -44 -19 -87 -21 -95 -2 -8 -14 29
-27 83 -22 87 -26 97 -47 97 -17 0 -24 -8 -32 -37 -5 -21 -16 -63 -24 -93 -16
-62 -19 -59 -42 53 -16 70 -19 77 -41 77 -13 0 -24 -5 -24 -10z"/>
<path d="M5059 15438 c-15 -40 -38 -103 -52 -140 l-26 -68 28 0 c23 0 31 6 40
30 9 28 13 30 61 30 48 0 52 -2 61 -30 9 -24 17 -30 40 -30 l28 0 -25 66 c-79
209 -78 209 -104 212 -23 3 -28 -4 -51 -70z m69 -47 c16 -52 16 -51 -18 -51
-16 0 -30 3 -30 6 0 17 24 84 30 84 4 0 12 -17 18 -39z"/>
<path d="M5290 15401 c0 -102 2 -111 25 -139 31 -37 81 -48 129 -28 19 8 39
23 45 34 6 12 11 70 11 131 l0 111 -25 0 -25 0 0 -108 c0 -116 -6 -132 -49
-132 -51 0 -56 11 -59 130 -4 109 -4 110 -28 110 -24 0 -24 0 -24 -109z"/>
<path d="M5580 15370 l0 -140 64 0 c50 0 69 5 91 22 75 59 71 190 -7 238 -23
14 -50 20 -90 20 l-58 0 0 -140z m132 73 c13 -12 18 -31 18 -72 0 -31 -4 -61
-8 -67 -11 -16 -48 -34 -71 -34 -20 0 -21 6 -21 101 l0 102 32 -7 c17 -3 40
-14 50 -23z"/>
<path d="M5860 15370 l0 -140 25 0 25 0 0 140 0 140 -25 0 -25 0 0 -140z"/>
<path d="M6028 15481 c-32 -29 -33 -32 -33 -110 0 -77 1 -82 32 -112 26 -27
39 -32 78 -32 38 0 52 5 77 31 27 26 32 40 36 92 8 103 -33 160 -114 160 -34
0 -51 -6 -76 -29z m117 -31 c40 -45 27 -164 -21 -176 -54 -14 -84 23 -84 100
0 78 62 123 105 76z"/>
<path d="M6458 15481 c-29 -26 -33 -35 -36 -98 -5 -86 13 -128 64 -149 48 -20
98 -9 129 28 31 37 32 58 2 58 -16 0 -28 -9 -35 -25 -9 -20 -19 -25 -46 -25
-18 0 -39 7 -46 15 -19 23 -25 110 -10 145 21 51 82 52 105 2 6 -13 19 -22 32
-22 33 0 30 35 -6 71 -42 41 -107 41 -153 0z"/>
<path d="M6738 15481 c-32 -29 -33 -32 -33 -110 0 -77 1 -82 32 -112 26 -27
39 -32 78 -32 38 0 52 5 77 31 27 26 32 40 36 92 8 103 -33 160 -114 160 -34
0 -51 -6 -76 -29z m117 -31 c40 -45 27 -164 -21 -176 -54 -14 -84 23 -84 100
0 78 62 123 105 76z"/>
<path d="M7010 15370 l0 -140 25 0 c24 0 24 2 27 90 l3 91 55 -90 c48 -78 59
-90 83 -91 l27 0 0 140 0 140 -25 0 c-24 0 -24 -1 -27 -95 l-3 -95 -58 95
c-48 78 -63 95 -83 95 l-24 0 0 -140z"/>
<path d="M7339 15373 c47 -133 50 -138 77 -138 26 0 30 6 75 130 27 72 48 133
49 138 0 4 -13 7 -28 7 -27 0 -30 -5 -62 -106 l-35 -106 -33 106 c-32 103 -33
106 -62 106 l-29 0 48 -137z"/>
<path d="M7600 15370 l0 -140 90 0 c83 0 90 1 90 20 0 18 -7 20 -65 20 l-65 0
0 40 0 40 55 0 c48 0 55 2 55 20 0 18 -7 20 -55 20 l-55 0 0 40 0 40 65 0 c58
0 65 2 65 20 0 19 -7 20 -90 20 l-90 0 0 -140z"/>
<path d="M7850 15370 l0 -140 25 0 c23 0 25 3 25 50 0 46 2 50 24 50 19 0 31
-11 53 -50 23 -42 33 -50 56 -50 l29 0 -31 56 -31 57 25 29 c33 39 32 73 -4
109 -27 27 -35 29 -100 29 l-71 0 0 -140z m124 87 c12 -9 17 -23 14 -42 -3
-27 -7 -30 -45 -33 l-43 -3 0 45 c0 44 1 46 28 46 16 0 36 -6 46 -13z"/>
<path d="M8090 15490 c0 -17 7 -20 40 -20 l40 0 0 -120 0 -120 25 0 24 0 3
118 3 117 43 3 c34 3 42 7 42 23 0 18 -8 19 -110 19 -103 0 -110 -1 -110 -20z"/>
<path d="M2898 14161 c-29 -26 -33 -35 -36 -98 -5 -86 13 -128 64 -149 48 -20
98 -9 129 28 31 37 32 58 2 58 -16 0 -28 -9 -35 -25 -9 -20 -19 -25 -46 -25
-18 0 -39 7 -46 15 -19 23 -25 110 -10 145 21 51 82 52 105 2 6 -13 19 -22 32
-22 33 0 30 35 -6 71 -42 41 -107 41 -153 0z"/>
<path d="M3150 14050 l0 -140 25 0 c23 0 25 3 25 50 0 46 2 50 24 50 19 0 31
-11 53 -50 23 -42 33 -50 56 -50 l29 0 -31 56 -31 57 25 29 c33 39 32 73 -4
109 -27 27 -35 29 -100 29 l-71 0 0 -140z m124 87 c12 -9 17 -23 14 -42 -3
-27 -7 -30 -45 -33 l-43 -3 0 45 c0 44 1 46 28 46 16 0 36 -6 46 -13z"/>
<path d="M3448 14161 c-32 -29 -33 -32 -33 -110 0 -77 1 -82 32 -112 26 -27
39 -32 78 -32 38 0 52 5 77 31 27 26 32 40 36 92 8 103 -33 160 -114 160 -34
0 -51 -6 -76 -29z m117 -31 c40 -45 27 -164 -21 -176 -54 -14 -84 23 -84 100
0 78 62 123 105 76z"/>
<path d="M3720 14051 l0 -141 25 0 c23 0 25 3 25 49 l0 49 56 4 c70 6 99 31
99 88 0 64 -28 84 -125 88 l-80 4 0 -141z m131 89 c12 -7 19 -21 19 -41 0 -32
-27 -49 -76 -49 -22 0 -24 4 -24 50 0 49 1 50 31 50 17 0 39 -5 50 -10z"/>
<path d="M4179 14118 c-15 -40 -38 -103 -52 -140 l-26 -68 28 0 c23 0 31 6 40
30 9 28 13 30 61 30 48 0 52 -2 61 -30 9 -24 17 -30 40 -30 l28 0 -25 66 c-79
209 -78 209 -104 212 -23 3 -28 -4 -51 -70z m69 -47 c16 -52 16 -51 -18 -51
-16 0 -30 3 -30 6 0 17 24 84 30 84 4 0 12 -17 18 -39z"/>
<path d="M4410 14081 c0 -102 2 -111 25 -139 31 -37 81 -48 129 -28 19 8 39
23 45 34 6 12 11 70 11 131 l0 111 -25 0 -25 0 0 -108 c0 -116 -6 -132 -49
-132 -51 0 -56 11 -59 130 -4 109 -4 110 -28 110 -24 0 -24 0 -24 -109z"/>
<path d="M4700 14050 l0 -140 64 0 c50 0 69 5 91 22 75 59 71 190 -7 238 -23
14 -50 20 -90 20 l-58 0 0 -140z m132 73 c13 -12 18 -31 18 -72 0 -31 -4 -61
-8 -67 -11 -16 -48 -34 -71 -34 -20 0 -21 6 -21 101 l0 102 32 -7 c17 -3 40
-14 50 -23z"/>
<path d="M4980 14050 l0 -140 25 0 25 0 0 140 0 140 -25 0 -25 0 0 -140z"/>
<path d="M5148 14161 c-32 -29 -33 -32 -33 -110 0 -77 1 -82 32 -112 26 -27
39 -32 78 -32 38 0 52 5 77 31 27 26 32 40 36 92 8 103 -33 160 -114 160 -34
0 -51 -6 -76 -29z m117 -31 c40 -45 27 -164 -21 -176 -54 -14 -84 23 -84 100
0 78 62 123 105 76z"/>
<path d="M5540 14081 c0 -102 2 -111 25 -139 31 -37 81 -48 129 -28 19 8 39
23 45 34 6 12 11 70 11 131 l0 111 -25 0 -25 0 0 -108 c0 -116 -6 -132 -49
-132 -51 0 -56 11 -59 130 -4 109 -4 110 -28 110 -24 0 -24 0 -24 -109z"/>
<path d="M5845 14165 c-49 -48 -24 -102 60 -134 27 -10 54 -25 59 -34 16 -25
-1 -47 -36 -47 -38 0 -52 8 -61 33 -7 19 -42 23 -53 6 -11 -18 30 -63 71 -77
45 -15 109 -1 125 28 16 29 12 75 -7 93 -10 8 -40 25 -68 37 -57 24 -68 37
-54 63 15 26 71 20 84 -10 6 -14 18 -23 32 -23 31 0 30 34 -2 65 -19 20 -34
25 -75 25 -41 0 -56 -5 -75 -25z"/>
<path d="M6100 14050 l0 -140 25 0 25 0 0 140 0 140 -25 0 -25 0 0 -140z"/>
<path d="M6240 14050 l0 -140 25 0 c24 0 24 2 27 90 l3 91 55 -90 c48 -78 59
-90 83 -91 l27 0 0 140 0 140 -25 0 c-24 0 -24 -1 -27 -95 l-3 -95 -58 95
c-48 78 -63 95 -83 95 l-24 0 0 -140z"/>
<path d="M6578 14161 c-29 -26 -32 -34 -36 -97 -3 -77 7 -105 51 -138 35 -26
104 -27 141 -2 23 14 26 23 26 71 l0 55 -56 0 c-47 0 -55 -3 -52 -17 2 -11 14
-19 31 -21 24 -3 28 -7 25 -30 -3 -23 -8 -27 -39 -30 -25 -2 -40 3 -53 17 -40
45 -28 165 19 177 33 8 63 -3 70 -27 4 -12 15 -19 31 -19 33 0 31 25 -5 61
-42 41 -107 41 -153 0z"/>
<path d="M6960 14170 c0 -17 7 -20 40 -20 l40 0 0 -120 0 -120 25 0 24 0 3
118 3 117 43 3 c34 3 42 7 42 23 0 18 -8 19 -110 19 -103 0 -110 -1 -110 -20z"/>
<path d="M7250 14050 l0 -140 25 0 25 0 0 140 0 140 -25 0 -25 0 0 -140z"/>
<path d="M7390 14051 l0 -141 25 0 c24 0 24 2 27 88 l3 87 31 -85 c27 -73 35
-85 54 -85 19 0 28 13 57 90 19 49 35 90 36 91 1 1 0 -40 -1 -92 l-4 -94 31 0
32 0 -3 138 -3 137 -34 0 c-34 0 -34 0 -72 -100 -42 -113 -34 -115 -87 25 -26
70 -30 75 -60 78 l-32 3 0 -140z"/>
<path d="M7760 14050 l0 -140 90 0 c83 0 90 1 90 20 0 18 -7 20 -65 20 l-65 0
0 40 0 40 55 0 c48 0 55 2 55 20 0 18 -7 20 -55 20 l-55 0 0 40 0 40 65 0 c58
0 65 2 65 20 0 19 -7 20 -90 20 l-90 0 0 -140z"/>
</g>
</svg>
